# xmcd
#
# Track frame offsets:
#	150
#	11435
#	24587
#	36045
#	47535
#	58872
#	69515
#	79530
#	91242
#	104255
#	115707
#	130317
#	141897
#
# Disc length: 2018 seconds
#
# Revision: 3
# Processed by: cddbd v1.5.2PL0 Copyright (c) Steve Scherf et al.
# Submitted via: audiograbber 1.83.01
#
DISCID=a107e00d
DTITLE=SSgt. Barry Sadler - Ballads Of The Green Berets
DYEAR=1997
DGENRE=Oldies
TTITLE0=Ballad Of The Green Berets
TTITLE1=I'm A Lucky One
TTITLE2=Letter From Vietnam
TTITLE3=Badge Of Courage
TTITLE4=Saigon
TTITLE5=Salute To The Nurses
TTITLE6=I'm Watching The Raindrops Fall
TTITLE7=Garet Trooper
TTITLE8=The Soldier Has Come Home
TTITLE9=Lullaby
TTITLE10=Trooper's Lament
TTITLE11=Bamiba
TTITLE12=The 'A' Team  
EXTD=
EXTT0=
EXTT1=
EXTT2=
EXTT3=
EXTT4=
EXTT5=
EXTT6=
EXTT7=
EXTT8=
EXTT9=
EXTT10=
EXTT11=
EXTT12=
PLAYORDER=
